<mxfile host="65bd71144e">
    <diagram id="4IocFyRNs4yEuKWUfdgg" name="BusStructure">
        <mxGraphModel dx="1093" dy="558" grid="1" gridSize="10" guides="1" tooltips="1" connect="1" arrows="1" fold="1" page="1" pageScale="1" pageWidth="850" pageHeight="1100" math="0" shadow="0">
            <root>
                <mxCell id="0"/>
                <mxCell id="1" parent="0"/>
                <mxCell id="2" value="Bus Structure" style="text;html=1;strokeColor=none;fillColor=none;align=center;verticalAlign=middle;whiteSpace=wrap;rounded=0;fontSize=25;" parent="1" vertex="1">
                    <mxGeometry x="367.5" y="30" width="200" height="40" as="geometry"/>
                </mxCell>
                <mxCell id="9" style="edgeStyle=none;html=1;entryX=0;entryY=0.25;entryDx=0;entryDy=0;fontSize=15;exitX=1;exitY=0.25;exitDx=0;exitDy=0;dashed=1;" parent="1" source="3" target="5" edge="1">
                    <mxGeometry relative="1" as="geometry"/>
                </mxCell>
                <mxCell id="3" value="BusHub" style="rounded=0;whiteSpace=wrap;html=1;fontSize=15;" parent="1" vertex="1">
                    <mxGeometry x="50" y="215" width="120" height="60" as="geometry"/>
                </mxCell>
                <mxCell id="4" value="" style="swimlane;startSize=0;fontSize=25;" parent="1" vertex="1">
                    <mxGeometry x="225" y="70" width="485" height="350" as="geometry"/>
                </mxCell>
                <mxCell id="11" style="edgeStyle=none;html=1;entryX=-0.008;entryY=0.357;entryDx=0;entryDy=0;entryPerimeter=0;fontSize=15;exitX=1;exitY=0.5;exitDx=0;exitDy=0;" parent="4" source="5" target="7" edge="1">
                    <mxGeometry relative="1" as="geometry">
                        <mxPoint x="163.75" y="205" as="sourcePoint"/>
                        <mxPoint x="315" y="212.5" as="targetPoint"/>
                        <Array as="points">
                            <mxPoint x="245" y="175"/>
                            <mxPoint x="245" y="220"/>
                        </Array>
                    </mxGeometry>
                </mxCell>
                <mxCell id="5" value="Receiver" style="rounded=1;whiteSpace=wrap;html=1;fontSize=15;" parent="4" vertex="1">
                    <mxGeometry x="55" y="145" width="145" height="60" as="geometry"/>
                </mxCell>
                <mxCell id="8" value="start" style="edgeStyle=none;html=1;entryX=0.5;entryY=0;entryDx=0;entryDy=0;fontSize=15;" parent="4" source="6" target="5" edge="1">
                    <mxGeometry x="-0.2401" relative="1" as="geometry">
                        <Array as="points">
                            <mxPoint x="128" y="80"/>
                        </Array>
                        <mxPoint x="1" as="offset"/>
                    </mxGeometry>
                </mxCell>
                <mxCell id="6" value="Main" style="rounded=0;whiteSpace=wrap;html=1;fontSize=15;" parent="4" vertex="1">
                    <mxGeometry x="227.5" y="50" width="120" height="60" as="geometry"/>
                </mxCell>
                <mxCell id="12" style="edgeStyle=none;html=1;entryX=0.5;entryY=1;entryDx=0;entryDy=0;fontSize=15;" parent="4" source="7" target="5" edge="1">
                    <mxGeometry relative="1" as="geometry">
                        <Array as="points">
                            <mxPoint x="128" y="240"/>
                        </Array>
                    </mxGeometry>
                </mxCell>
                <mxCell id="7" value="NGTaskQueue" style="shape=cylinder3;whiteSpace=wrap;html=1;boundedLbl=1;backgroundOutline=1;size=15;fontSize=15;" parent="4" vertex="1">
                    <mxGeometry x="315" y="170" width="132.5" height="140" as="geometry"/>
                </mxCell>
                <mxCell id="10" style="edgeStyle=none;html=1;entryX=1;entryY=0.75;entryDx=0;entryDy=0;fontSize=15;exitX=0;exitY=0.75;exitDx=0;exitDy=0;dashed=1;" parent="1" source="5" target="3" edge="1">
                    <mxGeometry relative="1" as="geometry"/>
                </mxCell>
            </root>
        </mxGraphModel>
    </diagram>
    <diagram id="ZMu5YA2UOOWM_PKyy2Z7" name="Page-2">
        <mxGraphModel dx="1987" dy="1015" grid="1" gridSize="10" guides="1" tooltips="1" connect="1" arrows="1" fold="1" page="1" pageScale="1" pageWidth="827" pageHeight="1169" math="0" shadow="0">
            <root>
                <mxCell id="0"/>
                <mxCell id="1" parent="0"/>
                <mxCell id="N1dqbX8AtgRM5iKn_r-6-1" value="TaskQueue Structure" style="text;html=1;align=center;verticalAlign=middle;whiteSpace=wrap;rounded=0;fontSize=25;" parent="1" vertex="1">
                    <mxGeometry x="240" width="347" height="30" as="geometry"/>
                </mxCell>
                <mxCell id="N1dqbX8AtgRM5iKn_r-6-2" value="TaskQueue interfaces" style="text;html=1;align=center;verticalAlign=middle;whiteSpace=wrap;rounded=0;fontSize=20;" parent="1" vertex="1">
                    <mxGeometry x="290" y="60" width="245" height="30" as="geometry"/>
                </mxCell>
                <mxCell id="N1dqbX8AtgRM5iKn_r-6-3" value="push_id_task(task)" style="rounded=0;whiteSpace=wrap;html=1;fontSize=15;" parent="1" vertex="1">
                    <mxGeometry x="274.5" y="140" width="244.5" height="60" as="geometry"/>
                </mxCell>
                <mxCell id="N1dqbX8AtgRM5iKn_r-6-4" value="push_category_task(task)" style="rounded=0;whiteSpace=wrap;html=1;fontSize=15;" parent="1" vertex="1">
                    <mxGeometry x="274.5" y="240" width="244.5" height="60" as="geometry"/>
                </mxCell>
                <mxCell id="N1dqbX8AtgRM5iKn_r-6-5" value="pull_id_task(id)" style="rounded=0;whiteSpace=wrap;html=1;fontSize=15;" parent="1" vertex="1">
                    <mxGeometry x="274.5" y="340" width="244.5" height="60" as="geometry"/>
                </mxCell>
                <mxCell id="N1dqbX8AtgRM5iKn_r-6-6" value="pull_category_task(category)" style="rounded=0;whiteSpace=wrap;html=1;fontSize=15;" parent="1" vertex="1">
                    <mxGeometry x="274.5" y="435" width="244.5" height="60" as="geometry"/>
                </mxCell>
                <mxCell id="N1dqbX8AtgRM5iKn_r-6-8" value="Task" style="edgeStyle=none;html=1;entryX=0;entryY=0.5;entryDx=0;entryDy=0;fillColor=#1ba1e2;strokeColor=#006EAF;strokeWidth=2;exitX=1.004;exitY=0.471;exitDx=0;exitDy=0;exitPerimeter=0;" parent="1" source="N1dqbX8AtgRM5iKn_r-6-7" target="N1dqbX8AtgRM5iKn_r-6-3" edge="1">
                    <mxGeometry x="0.831" relative="1" as="geometry">
                        <Array as="points">
                            <mxPoint x="209" y="465"/>
                            <mxPoint x="209" y="170"/>
                        </Array>
                        <mxPoint as="offset"/>
                    </mxGeometry>
                </mxCell>
                <mxCell id="N1dqbX8AtgRM5iKn_r-6-9" value="Task" style="edgeStyle=none;html=1;entryX=0;entryY=0.5;entryDx=0;entryDy=0;fillColor=#1ba1e2;strokeColor=#006EAF;strokeWidth=2;exitX=1.005;exitY=0.472;exitDx=0;exitDy=0;exitPerimeter=0;" parent="1" source="N1dqbX8AtgRM5iKn_r-6-7" target="N1dqbX8AtgRM5iKn_r-6-4" edge="1">
                    <mxGeometry x="0.7781" relative="1" as="geometry">
                        <Array as="points">
                            <mxPoint x="209" y="465"/>
                            <mxPoint x="209" y="270"/>
                        </Array>
                        <mxPoint as="offset"/>
                    </mxGeometry>
                </mxCell>
                <mxCell id="N1dqbX8AtgRM5iKn_r-6-10" value="Id" style="edgeStyle=none;html=1;entryX=0;entryY=0.25;entryDx=0;entryDy=0;fillColor=#1ba1e2;strokeColor=#006EAF;strokeWidth=2;fontSize=12;exitX=1.002;exitY=0.471;exitDx=0;exitDy=0;exitPerimeter=0;" parent="1" source="N1dqbX8AtgRM5iKn_r-6-7" target="N1dqbX8AtgRM5iKn_r-6-5" edge="1">
                    <mxGeometry x="0.6982" relative="1" as="geometry">
                        <Array as="points">
                            <mxPoint x="209" y="465"/>
                            <mxPoint x="209" y="355"/>
                        </Array>
                        <mxPoint as="offset"/>
                    </mxGeometry>
                </mxCell>
                <mxCell id="N1dqbX8AtgRM5iKn_r-6-11" value="" style="edgeStyle=none;html=1;entryX=0;entryY=0.5;entryDx=0;entryDy=0;fillColor=#1ba1e2;strokeColor=#006EAF;strokeWidth=2;exitX=1.009;exitY=0.471;exitDx=0;exitDy=0;fontSize=18;exitPerimeter=0;" parent="1" source="N1dqbX8AtgRM5iKn_r-6-7" target="N1dqbX8AtgRM5iKn_r-6-6" edge="1">
                    <mxGeometry x="-0.5219" y="25" relative="1" as="geometry">
                        <Array as="points"/>
                        <mxPoint as="offset"/>
                    </mxGeometry>
                </mxCell>
                <mxCell id="VwWREPRFmjBBCu5KusWI-20" value="Category" style="edgeLabel;html=1;align=center;verticalAlign=middle;resizable=0;points=[];" vertex="1" connectable="0" parent="N1dqbX8AtgRM5iKn_r-6-11">
                    <mxGeometry x="0.4114" y="-1" relative="1" as="geometry">
                        <mxPoint x="-4" y="-1" as="offset"/>
                    </mxGeometry>
                </mxCell>
                <mxCell id="N1dqbX8AtgRM5iKn_r-6-7" value="&lt;span data-huuid=&quot;47937734108672431&quot;&gt;Application&lt;/span&gt;&amp;nbsp;layer" style="rounded=0;whiteSpace=wrap;html=1;" parent="1" vertex="1">
                    <mxGeometry x="29" y="160" width="120" height="650" as="geometry"/>
                </mxCell>
                <mxCell id="N1dqbX8AtgRM5iKn_r-6-16" value="payload" style="edgeStyle=none;html=1;entryX=1;entryY=0.75;entryDx=0;entryDy=0;fillColor=#008a00;strokeColor=#00FF00;strokeWidth=2;exitX=-0.006;exitY=0.364;exitDx=0;exitDy=0;exitPerimeter=0;" parent="1" source="N1dqbX8AtgRM5iKn_r-6-12" target="N1dqbX8AtgRM5iKn_r-6-5" edge="1">
                    <mxGeometry relative="1" as="geometry">
                        <mxPoint x="629" y="385" as="sourcePoint"/>
                    </mxGeometry>
                </mxCell>
                <mxCell id="N1dqbX8AtgRM5iKn_r-6-18" value="payload" style="edgeStyle=none;html=1;entryX=1;entryY=0.75;entryDx=0;entryDy=0;fillColor=#008a00;strokeColor=#00FF00;strokeWidth=2;exitX=0;exitY=0.5;exitDx=0;exitDy=0;exitPerimeter=0;" parent="1" source="N1dqbX8AtgRM5iKn_r-6-12" target="N1dqbX8AtgRM5iKn_r-6-6" edge="1">
                    <mxGeometry relative="1" as="geometry">
                        <mxPoint x="637" y="480" as="sourcePoint"/>
                    </mxGeometry>
                </mxCell>
                <mxCell id="N1dqbX8AtgRM5iKn_r-6-12" value="Queues" style="shape=cylinder3;whiteSpace=wrap;html=1;boundedLbl=1;backgroundOutline=1;size=15;" parent="1" vertex="1">
                    <mxGeometry x="639" y="130" width="160" height="700" as="geometry"/>
                </mxCell>
                <mxCell id="N1dqbX8AtgRM5iKn_r-6-13" style="edgeStyle=none;html=1;fillColor=#1ba1e2;strokeColor=#006EAF;strokeWidth=2;entryX=0;entryY=0.06;entryDx=0;entryDy=0;entryPerimeter=0;" parent="1" source="N1dqbX8AtgRM5iKn_r-6-3" edge="1" target="N1dqbX8AtgRM5iKn_r-6-12">
                    <mxGeometry relative="1" as="geometry">
                        <mxPoint x="599" y="283" as="targetPoint"/>
                        <Array as="points"/>
                    </mxGeometry>
                </mxCell>
                <mxCell id="N1dqbX8AtgRM5iKn_r-6-14" style="edgeStyle=none;html=1;fillColor=#1ba1e2;strokeColor=#006EAF;strokeWidth=2;entryX=0.001;entryY=0.2;entryDx=0;entryDy=0;entryPerimeter=0;" parent="1" edge="1" target="N1dqbX8AtgRM5iKn_r-6-12">
                    <mxGeometry relative="1" as="geometry">
                        <mxPoint x="638" y="310" as="targetPoint"/>
                        <Array as="points"/>
                        <mxPoint x="519" y="270" as="sourcePoint"/>
                    </mxGeometry>
                </mxCell>
                <mxCell id="N1dqbX8AtgRM5iKn_r-6-15" style="edgeStyle=none;html=1;exitX=1.001;exitY=0.343;exitDx=0;exitDy=0;fillColor=#1ba1e2;strokeColor=#006EAF;strokeWidth=2;exitPerimeter=0;" parent="1" source="N1dqbX8AtgRM5iKn_r-6-5" edge="1">
                    <mxGeometry relative="1" as="geometry">
                        <mxPoint x="639" y="360" as="targetPoint"/>
                    </mxGeometry>
                </mxCell>
                <mxCell id="N1dqbX8AtgRM5iKn_r-6-17" style="edgeStyle=none;html=1;exitX=0.999;exitY=0.324;exitDx=0;exitDy=0;fillColor=#1ba1e2;strokeColor=#006EAF;strokeWidth=2;exitPerimeter=0;" parent="1" source="N1dqbX8AtgRM5iKn_r-6-6" edge="1">
                    <mxGeometry relative="1" as="geometry">
                        <Array as="points"/>
                        <mxPoint x="639" y="454" as="targetPoint"/>
                    </mxGeometry>
                </mxCell>
                <mxCell id="N1dqbX8AtgRM5iKn_r-6-20" style="edgeStyle=none;html=1;fillColor=#008a00;strokeColor=#00FF00;strokeWidth=2;exitX=0;exitY=0.5;exitDx=0;exitDy=0;" parent="1" source="N1dqbX8AtgRM5iKn_r-6-5" edge="1">
                    <mxGeometry relative="1" as="geometry">
                        <mxPoint x="269" y="375" as="sourcePoint"/>
                        <mxPoint x="152" y="370" as="targetPoint"/>
                    </mxGeometry>
                </mxCell>
                <mxCell id="N1dqbX8AtgRM5iKn_r-6-21" style="edgeStyle=none;html=1;fillColor=#008a00;strokeColor=#00FF00;strokeWidth=2;exitX=0;exitY=0.75;exitDx=0;exitDy=0;" parent="1" source="N1dqbX8AtgRM5iKn_r-6-6" edge="1">
                    <mxGeometry relative="1" as="geometry">
                        <Array as="points"/>
                        <mxPoint x="149" y="480" as="targetPoint"/>
                    </mxGeometry>
                </mxCell>
                <mxCell id="VwWREPRFmjBBCu5KusWI-1" value="get_id_queue_len()" style="rounded=0;whiteSpace=wrap;html=1;fontSize=15;" vertex="1" parent="1">
                    <mxGeometry x="274.5" y="540" width="244.5" height="60" as="geometry"/>
                </mxCell>
                <mxCell id="VwWREPRFmjBBCu5KusWI-2" value="get_category_queue_len(category)" style="rounded=0;whiteSpace=wrap;html=1;fontSize=15;" vertex="1" parent="1">
                    <mxGeometry x="274.5" y="640" width="249" height="60" as="geometry"/>
                </mxCell>
                <mxCell id="VwWREPRFmjBBCu5KusWI-4" value="get_category_queue(category)" style="rounded=0;whiteSpace=wrap;html=1;fontSize=15;" vertex="1" parent="1">
                    <mxGeometry x="274.5" y="740" width="249" height="60" as="geometry"/>
                </mxCell>
                <mxCell id="VwWREPRFmjBBCu5KusWI-6" style="edgeStyle=none;html=1;entryX=0;entryY=0.5;entryDx=0;entryDy=0;fillColor=#1ba1e2;strokeColor=#006EAF;strokeWidth=2;fontSize=30;exitX=1.002;exitY=0.472;exitDx=0;exitDy=0;exitPerimeter=0;" edge="1" parent="1" source="N1dqbX8AtgRM5iKn_r-6-7" target="VwWREPRFmjBBCu5KusWI-1">
                    <mxGeometry relative="1" as="geometry">
                        <Array as="points">
                            <mxPoint x="209" y="465"/>
                            <mxPoint x="209" y="570"/>
                        </Array>
                        <mxPoint x="159" y="475" as="sourcePoint"/>
                        <mxPoint x="285" y="365" as="targetPoint"/>
                    </mxGeometry>
                </mxCell>
                <mxCell id="VwWREPRFmjBBCu5KusWI-7" style="edgeStyle=none;html=1;fillColor=#1ba1e2;strokeColor=#006EAF;strokeWidth=2;fontSize=30;exitX=1.004;exitY=0.471;exitDx=0;exitDy=0;entryX=0;entryY=0.5;entryDx=0;entryDy=0;exitPerimeter=0;" edge="1" parent="1" source="N1dqbX8AtgRM5iKn_r-6-7" target="VwWREPRFmjBBCu5KusWI-4">
                    <mxGeometry relative="1" as="geometry">
                        <Array as="points">
                            <mxPoint x="209" y="465"/>
                            <mxPoint x="209" y="770"/>
                        </Array>
                        <mxPoint x="169" y="517.5" as="sourcePoint"/>
                        <mxPoint x="199" y="740" as="targetPoint"/>
                    </mxGeometry>
                </mxCell>
                <mxCell id="VwWREPRFmjBBCu5KusWI-23" value="Category" style="edgeLabel;html=1;align=center;verticalAlign=middle;resizable=0;points=[];" vertex="1" connectable="0" parent="VwWREPRFmjBBCu5KusWI-7">
                    <mxGeometry x="0.8194" relative="1" as="geometry">
                        <mxPoint as="offset"/>
                    </mxGeometry>
                </mxCell>
                <mxCell id="VwWREPRFmjBBCu5KusWI-8" style="edgeStyle=none;html=1;entryX=0.018;entryY=0.5;entryDx=0;entryDy=0;fillColor=#1ba1e2;strokeColor=#006EAF;strokeWidth=2;fontSize=30;exitX=0.996;exitY=0.472;exitDx=0;exitDy=0;entryPerimeter=0;exitPerimeter=0;" edge="1" parent="1" source="N1dqbX8AtgRM5iKn_r-6-7" target="VwWREPRFmjBBCu5KusWI-2">
                    <mxGeometry relative="1" as="geometry">
                        <Array as="points">
                            <mxPoint x="209" y="465"/>
                            <mxPoint x="209" y="670"/>
                        </Array>
                        <mxPoint x="159" y="475" as="sourcePoint"/>
                        <mxPoint x="285" y="680" as="targetPoint"/>
                    </mxGeometry>
                </mxCell>
                <mxCell id="VwWREPRFmjBBCu5KusWI-10" style="edgeStyle=none;html=1;entryX=0.004;entryY=0.403;entryDx=0;entryDy=0;entryPerimeter=0;exitX=1;exitY=0.25;exitDx=0;exitDy=0;fillColor=#1ba1e2;strokeColor=#006EAF;strokeWidth=2;" edge="1" parent="1">
                    <mxGeometry relative="1" as="geometry">
                        <Array as="points"/>
                        <mxPoint x="519" y="560" as="sourcePoint"/>
                        <mxPoint x="640" y="560" as="targetPoint"/>
                    </mxGeometry>
                </mxCell>
                <mxCell id="VwWREPRFmjBBCu5KusWI-11" style="edgeStyle=none;html=1;entryX=0.004;entryY=0.403;entryDx=0;entryDy=0;entryPerimeter=0;exitX=1;exitY=0.25;exitDx=0;exitDy=0;fillColor=#1ba1e2;strokeColor=#006EAF;strokeWidth=2;" edge="1" parent="1">
                    <mxGeometry relative="1" as="geometry">
                        <Array as="points"/>
                        <mxPoint x="523.5" y="660" as="sourcePoint"/>
                        <mxPoint x="644.5" y="660" as="targetPoint"/>
                    </mxGeometry>
                </mxCell>
                <mxCell id="VwWREPRFmjBBCu5KusWI-12" style="edgeStyle=none;html=1;entryX=0.004;entryY=0.403;entryDx=0;entryDy=0;entryPerimeter=0;exitX=1;exitY=0.25;exitDx=0;exitDy=0;fillColor=#1ba1e2;strokeColor=#006EAF;strokeWidth=2;" edge="1" parent="1">
                    <mxGeometry relative="1" as="geometry">
                        <Array as="points"/>
                        <mxPoint x="523.5" y="760" as="sourcePoint"/>
                        <mxPoint x="644.5" y="760" as="targetPoint"/>
                    </mxGeometry>
                </mxCell>
                <mxCell id="VwWREPRFmjBBCu5KusWI-13" value="usize" style="edgeStyle=none;html=1;entryX=1;entryY=0.75;entryDx=0;entryDy=0;fillColor=#008a00;strokeColor=#00FF00;strokeWidth=2;exitX=-0.002;exitY=0.643;exitDx=0;exitDy=0;exitPerimeter=0;" edge="1" parent="1" source="N1dqbX8AtgRM5iKn_r-6-12">
                    <mxGeometry relative="1" as="geometry">
                        <mxPoint x="637" y="580" as="sourcePoint"/>
                        <mxPoint x="519" y="580" as="targetPoint"/>
                    </mxGeometry>
                </mxCell>
                <mxCell id="VwWREPRFmjBBCu5KusWI-14" value="usize" style="edgeStyle=none;html=1;entryX=1;entryY=0.75;entryDx=0;entryDy=0;fillColor=#008a00;strokeColor=#00FF00;strokeWidth=2;" edge="1" parent="1">
                    <mxGeometry relative="1" as="geometry">
                        <mxPoint x="639" y="680" as="sourcePoint"/>
                        <mxPoint x="521" y="680" as="targetPoint"/>
                    </mxGeometry>
                </mxCell>
                <mxCell id="VwWREPRFmjBBCu5KusWI-15" value="Queue" style="edgeStyle=none;html=1;entryX=1;entryY=0.75;entryDx=0;entryDy=0;fillColor=#008a00;strokeColor=#00FF00;strokeWidth=2;" edge="1" parent="1">
                    <mxGeometry relative="1" as="geometry">
                        <mxPoint x="639" y="780" as="sourcePoint"/>
                        <mxPoint x="523.5" y="780" as="targetPoint"/>
                    </mxGeometry>
                </mxCell>
                <mxCell id="VwWREPRFmjBBCu5KusWI-17" style="edgeStyle=none;html=1;fillColor=#008a00;strokeColor=#00FF00;strokeWidth=2;exitX=0;exitY=0.75;exitDx=0;exitDy=0;" edge="1" parent="1">
                    <mxGeometry relative="1" as="geometry">
                        <Array as="points"/>
                        <mxPoint x="274.5" y="590" as="sourcePoint"/>
                        <mxPoint x="148.5" y="590" as="targetPoint"/>
                    </mxGeometry>
                </mxCell>
                <mxCell id="VwWREPRFmjBBCu5KusWI-18" style="edgeStyle=none;html=1;fillColor=#008a00;strokeColor=#00FF00;strokeWidth=2;exitX=0;exitY=0.75;exitDx=0;exitDy=0;" edge="1" parent="1">
                    <mxGeometry relative="1" as="geometry">
                        <Array as="points"/>
                        <mxPoint x="274.5" y="690" as="sourcePoint"/>
                        <mxPoint x="148.5" y="690" as="targetPoint"/>
                    </mxGeometry>
                </mxCell>
                <mxCell id="VwWREPRFmjBBCu5KusWI-19" style="edgeStyle=none;html=1;fillColor=#008a00;strokeColor=#00FF00;strokeWidth=2;exitX=0;exitY=0.75;exitDx=0;exitDy=0;" edge="1" parent="1">
                    <mxGeometry relative="1" as="geometry">
                        <Array as="points"/>
                        <mxPoint x="274.5" y="790" as="sourcePoint"/>
                        <mxPoint x="148.5" y="790" as="targetPoint"/>
                    </mxGeometry>
                </mxCell>
            </root>
        </mxGraphModel>
    </diagram>
</mxfile>